<svg width="1024" height="1024" viewBox="0 0 1024 1024" xmlns="http://www.w3.org/2000/svg">
  <defs>
    <linearGradient id="g" x1="0" y1="0" x2="1" y2="1">
      <stop offset="0%"   stop-color="#6366f1"/>
      <stop offset="50%"  stop-color="#8b5cf6"/>
      <stop offset="100%" stop-color="#06b6d4"/>
    </linearGradient>
  </defs>
  <rect x="112" y="112" width="800" height="800" rx="184" fill="url(#g)"/>

  <!-- teaveloper 죽방 엠블럼(흰 사람/키홀) — 원 + 삼각 -->
  <circle cx="474" cy="512" r="98" fill="#ffffff"/>
  <path d="M474 590 L352 786 L596 786 Z" fill="#ffffff"/>

  <!-- 말풍선 하나(테두리 색만 살짝 변형) -->
  <path d="M578 168 H792 a40 40 0 0 1 40 40 V300 a40 40 0 0 1 -40 40 H648 L604 412 L604 340 H578 a40 40 0 0 1 -40 -40 V208 a40 40 0 0 1 40 -40 Z"
        fill="#ffffff" stroke="#a5b4fc" stroke-width="12" stroke-linejoin="round"/>
  <g fill="#c7d2fe">
    <rect x="612" y="220" width="150" height="22" rx="11"/>
    <rect x="612" y="262" width="104" height="22" rx="11"/>
  </g>
</svg>
